<svg width="152" height="62" viewBox="0 0 152 62" fill="none" xmlns="http://www.w3.org/2000/svg">
<path d="M5.4502 38.1837C5.4502 38.1837 2.31686 38.1837 0.700195 38.1837C0.700195 28.8837 0.700195 19.6337 0.700195 10.3171C2.06686 10.3171 3.48353 10.3171 5.0002 10.3171C5.0002 11.2171 5.0002 13.0337 5.0002 13.0337C5.0002 13.0337 5.13353 13.1504 5.2002 13.2171C7.23353 10.5504 9.91686 9.53372 13.1335 9.73372C16.4169 9.93372 18.9002 11.3671 20.5335 14.3504C20.7169 14.1171 20.8835 13.9337 21.0002 13.7337C23.2669 10.2004 26.7002 9.30039 30.5502 9.75039C35.9835 10.3671 39.4169 14.2671 39.5669 20.0337C39.7169 25.8504 39.6335 31.6671 39.6502 37.4837C39.6502 37.6171 39.6169 37.7337 39.5835 37.7671H34.6669C34.6502 37.6004 34.6169 37.3004 34.6169 37.0171C34.5835 32.0337 34.6335 27.0504 34.5002 22.0671C34.4502 20.4837 34.1502 18.8171 33.5835 17.3337C32.7669 15.1671 30.6002 14.1004 28.1502 14.2671C25.5335 14.4337 23.9002 15.6004 23.2669 18.0504C22.8669 19.6171 22.6669 21.2504 22.6502 22.8671C22.5835 27.5171 22.6502 32.1671 22.6502 36.8337C22.6502 37.1837 22.6502 37.9837 22.6502 37.9837H17.6835C17.6835 37.9837 17.6835 37.2004 17.6835 36.8337C17.6669 32.2504 17.7335 27.6504 17.6169 23.0671C17.5669 21.3671 17.3002 19.6171 16.8169 17.9837C16.1169 15.5671 14.4502 14.4504 11.9335 14.3337C9.3502 14.2171 7.41686 15.3504 6.4002 17.6004C5.48353 19.6171 5.38353 21.7837 5.38353 23.9504C5.36686 28.2337 5.41686 32.5171 5.43353 36.8171C5.4502 37.1671 5.4502 38.1837 5.4502 38.1837ZM107.284 12.2504C102.617 8.30039 95.2335 7.96706 90.3169 11.6504C85.3002 15.4171 83.5335 20.5671 84.6169 26.6171C85.5335 31.8004 88.5169 35.5337 93.5335 37.3504C98.5835 39.1837 103.35 38.6337 107.534 35.0004C107.717 34.8504 107.917 34.7171 108.067 34.4504V37.5671C108.067 37.5671 111.767 37.5671 113.4 37.5671C113.4 25.2837 113.4 13.0671 113.4 0.900391C111.634 0.900391 109.984 0.900391 108.284 0.900391C108.284 4.95039 108.284 13.0504 108.284 13.0504C108.284 13.0504 107.534 12.4504 107.284 12.2504ZM99.0169 14.0171C104.167 14.0004 108.534 18.6004 108.484 23.9837C108.434 29.0504 103.967 33.5837 99.1169 33.5337C93.7502 33.4671 89.5335 29.1004 89.5502 23.5837C89.5669 18.3171 93.8002 14.0337 99.0169 14.0171ZM145.617 28.4837C144.9 28.4504 144.517 28.6837 144.1 29.2837C142.034 32.4004 138.3 33.7671 134.55 32.8504C131.05 32.0004 128.217 28.8504 127.817 25.2671C131.717 25.2671 135.6 25.2671 139.484 25.2671C143.35 25.2671 147.234 25.2671 151.267 25.2671C151.117 23.5004 151.05 21.9671 150.834 20.4671C149.434 11.1504 139.034 5.71706 130.567 9.85039C124.1 13.0171 120.884 20.6504 123.05 27.7671C125.2 34.8837 131.634 39.0337 139 38.0504C143.934 37.3837 148.317 33.9004 150.184 28.5004C148.667 28.5004 147.15 28.5337 145.617 28.4837ZM138 13.6337C141.6 13.9337 145.234 17.3671 145.467 20.7504C139.65 20.7504 133.85 20.7504 128 20.7504C129.084 16.0504 133.067 13.2337 138 13.6337ZM61.5002 3.48372C54.2335 2.38372 48.6335 7.20039 48.6335 14.5337C48.6335 21.8171 54.4335 28.9004 61.5835 30.3504C69.2002 31.9004 75.2502 27.1504 75.3002 19.6004C75.3335 11.9004 69.1169 4.63372 61.5002 3.48372ZM69.0835 13.6337C70.4669 15.7671 71.0835 18.1337 70.5169 20.6671C69.6835 24.4004 66.0835 26.5504 62.0835 25.7671C57.3835 24.8504 53.1835 19.7004 53.2335 14.9171C53.2669 10.9504 56.3502 7.93373 60.9835 8.01706C64.2502 8.28373 67.0169 10.4504 69.0835 13.6337ZM47.8835 35.8671C58.3002 39.4504 68.7335 39.5171 79.1335 35.6004C68.7335 31.7171 58.3169 31.7337 47.9002 35.3504C47.9002 35.5171 47.8835 35.6837 47.8835 35.8671Z" fill="url(#paint0_linear_6_118)"/>
<path d="M59.8003 55.351V61.7177H58.1836V55.8677C58.1836 53.9177 57.1003 52.7677 55.2003 52.7677C53.4669 52.7677 52.0503 53.9677 52.0503 55.9177V61.7177H50.4336V55.8677C50.4336 53.9177 49.3503 52.7677 47.4669 52.7677C45.7336 52.7677 44.3169 53.9677 44.3169 55.9177V61.7177H42.6836V51.4344H44.2836V52.901C45.1169 51.6677 46.4836 51.2344 47.7503 51.2344C49.5503 51.2344 50.9503 52.051 51.6003 53.401C52.4336 51.801 54.0336 51.2344 55.4836 51.2344C58.0503 51.2344 59.8003 52.8677 59.8003 55.351Z" fill="white"/>
<path d="M73.5169 56.5844C73.5169 59.6344 71.2002 61.9344 68.1002 61.9344C65.0002 61.9344 62.7002 59.6344 62.7002 56.5844C62.7002 53.551 65.0169 51.2344 68.1002 51.2344C71.1835 51.2344 73.5169 53.5344 73.5169 56.5844ZM64.3502 56.5844C64.3502 58.8177 65.9669 60.4177 68.1002 60.4177C70.2335 60.4177 71.8502 58.8177 71.8502 56.5844C71.8502 54.3677 70.2169 52.7677 68.1002 52.7677C65.9669 52.751 64.3502 54.3677 64.3502 56.5844Z" fill="white"/>
<path d="M87.0504 56.584C87.0504 59.684 84.8004 61.934 81.917 61.934C80.217 61.934 78.9837 61.2507 78.167 60.2007V61.7173H76.5337V46.084H78.167V52.9507C78.9837 51.9007 80.217 51.2173 81.917 51.2173C84.8004 51.234 87.0504 53.5007 87.0504 56.584ZM78.067 56.584C78.067 58.7673 79.5837 60.4173 81.7337 60.4173C83.9337 60.4173 85.4004 58.7173 85.4004 56.584C85.4004 54.4673 83.917 52.7673 81.7337 52.7673C79.567 52.7506 78.067 54.4007 78.067 56.584Z" fill="white"/>
<path d="M92.0338 47.8004C92.0338 48.4504 91.5172 48.9337 90.8838 48.9337C90.2338 48.9337 89.7505 48.4504 89.7505 47.8004C89.7505 47.1504 90.2338 46.6504 90.8838 46.6504C91.5338 46.6504 92.0338 47.1504 92.0338 47.8004ZM91.7005 61.7337H90.0672V51.4504H91.7005V61.7337Z" fill="white"/>
<path d="M97.1338 61.7339H95.5005V46.1006H97.1338V61.7339Z" fill="white"/>
<path d="M110.084 56.5502C110.084 56.7502 110.067 56.9669 110.05 57.1502H101.8C102.034 59.3669 103.584 60.5002 105.434 60.5002C106.7 60.5002 107.817 60.0169 108.684 59.2002L109.55 60.3002C108.267 61.5335 106.834 61.9002 105.334 61.9002C102.3 61.9002 100.134 59.7335 100.134 56.5502C100.134 53.4002 102.3 51.2002 105.234 51.2002C108.05 51.2335 110.067 53.4169 110.084 56.5502ZM101.834 55.8335H108.434C108.234 53.9169 106.967 52.6669 105.217 52.6669C103.317 52.6835 102.1 53.9835 101.834 55.8335Z" fill="white"/>
<defs>
<linearGradient id="paint0_linear_6_118" x1="-1.13959" y1="19.559" x2="149.486" y2="19.8275" gradientUnits="userSpaceOnUse">
<stop offset="0.1209" stop-color="#F7007C"/>
<stop offset="0.8671" stop-color="#07C8F7"/>
</linearGradient>
</defs>
</svg>
