<svg width="151" height="80" viewBox="0 0 151 80" fill="none" xmlns="http://www.w3.org/2000/svg">
<path d="M105.494 79.5747H94.0129L97.7455 62.0222H108.683C112.581 62.0222 115.251 63.227 114.636 66.4162L114.589 66.6525C114.164 68.6132 112.747 69.8889 110.053 70.2905L110.03 70.3614C112.817 70.763 114.117 72.2986 113.668 74.5901L113.621 74.8263C112.865 78.2045 110.03 79.5747 105.494 79.5747ZM102.234 65.8729L101.573 68.944H106.723C108.353 68.944 109.156 68.4715 109.345 67.5974L109.368 67.3848C109.605 66.3454 109.061 65.8729 107.549 65.8729H102.234ZM100.864 72.2749L100.108 75.724H105.4C107.148 75.724 108.069 75.2043 108.282 74.2357L108.329 73.9995C108.565 72.771 107.833 72.2749 105.919 72.2749H100.864Z" fill="white"/>
<path d="M81.5443 79.9999C74.6226 79.9999 72.6382 77.2832 73.8194 71.8261L75.8983 62.0222H81.2372L79.1347 71.9442C78.5441 74.7318 79.7017 76.0075 82.4184 76.0075C85.1352 76.0075 86.8125 74.7318 87.403 71.9678L89.5056 62.0222H94.8682L92.7893 71.8497C91.6553 77.2359 88.5606 79.9999 81.5443 79.9999Z" fill="white"/>
<path d="M71.5402 79.5747H56.8462L60.5788 62.0222H65.9177L63.012 75.6531H72.367L71.5402 79.5747Z" fill="white"/>
<path d="M44.6646 80C38.0264 80 34.7899 77.0706 36.0892 70.9993L36.1837 70.5032C37.4358 64.5736 41.7589 61.6443 48.0192 61.6443C54.2795 61.6443 57.516 64.5736 56.8073 69.0858L56.7836 69.1803H51.5392L51.5628 69.0621C51.7754 66.8415 50.2162 65.6367 47.5467 65.6367C44.6646 65.6367 42.3495 66.9596 41.5699 70.5268L41.4282 71.2592C40.7195 74.661 42.5149 76.0312 45.2789 76.0312C47.783 76.0312 50.1217 74.9681 50.8541 72.5585L50.9013 72.3695H56.1222L56.0985 72.5348C54.8701 77.047 50.547 80 44.6646 80Z" fill="white"/>
<path d="M134.962 50.9775H129.623L133.355 33.425H143.584C149.183 33.425 151.073 35.5276 150.388 38.8585L150.341 39.1184C149.868 41.15 148.144 42.7328 145.616 43.2289L145.592 43.2998C147.364 43.7723 147.978 44.6936 147.931 47.1505L147.86 48.4025C147.836 49.5601 147.907 50.2688 148.073 50.9775H142.639C142.521 50.4814 142.498 49.8672 142.521 48.4261L142.545 47.1741C142.592 45.9693 141.86 45.3787 139.615 45.3787H136.166L134.962 50.9775ZM137.867 37.323L136.946 41.6697H141.576C143.372 41.6697 144.6 40.961 144.931 39.4727L144.978 39.1892C145.214 37.9844 144.411 37.323 142.568 37.323H137.867Z" fill="white"/>
<path d="M117.147 51.4028C110.698 51.4028 106.965 48.4262 108.288 42.4021L108.406 41.8588C109.706 36.0001 113.84 33.0471 120.502 33.0471C127.14 33.0471 130.566 36.2127 129.219 42.1423L129.124 42.473C127.754 48.4262 123.786 51.4028 117.147 51.4028ZM117.62 47.4104C120.667 47.4104 122.935 45.9457 123.691 42.5439L123.809 42.0478C124.612 38.4806 122.817 37.0395 119.769 37.0395C116.746 37.0395 114.572 38.4097 113.84 41.7643L113.675 42.4966C112.919 46.0166 114.808 47.4104 117.62 47.4104Z" fill="white"/>
<path d="M100.437 50.9775H95.0748L97.9806 37.3466H91.7439L92.5944 33.425H110.383L109.556 37.3466H103.343L100.437 50.9775Z" fill="white"/>
<path d="M79.8297 51.4028C73.5221 51.4028 71.1597 48.7097 71.8212 45.1897L71.8448 45.048H76.9948L76.9712 45.1897C76.7113 46.678 77.3964 47.7175 80.4203 47.7175C82.9008 47.7175 83.9638 47.0796 84.2001 46.0638L84.2473 45.8512C84.4599 44.8118 83.9402 44.3865 80.3258 43.7723C74.3726 42.9455 73.2623 41.0792 73.8765 38.1735L73.9237 37.9372C74.4907 35.3622 76.9948 33.0471 82.948 33.0471C88.9484 33.0471 91.0746 35.5276 90.5549 39.1657V39.2838H85.6175V39.1657C85.7592 37.8664 85.2395 36.7324 82.5464 36.7324C80.3021 36.7324 79.3572 37.3466 79.1682 38.2443L79.121 38.4333C78.9792 39.1893 79.3336 39.7326 82.0739 40.1343C89.3264 41.1501 90.0824 43.2526 89.539 45.8512L89.4918 46.0874C88.7595 49.5365 85.4994 51.4028 79.8297 51.4028Z" fill="white"/>
<path d="M69.53 50.9775H53.4895L57.2221 33.425H73.0736L72.2468 37.323H61.7342L61.12 40.2996H70.6876L69.9553 43.7723H60.3876L59.6553 47.0796H70.3569L69.53 50.9775Z" fill="white"/>
<path d="M37.4078 50.9775L34.0532 33.425H39.6993L41.6601 46.7961L41.7073 47.3158H41.7782L42.0381 46.7961L49.7394 33.425H55.5981L44.6839 50.9775H37.4078Z" fill="white"/>
<path d="M13.6948 50.9775H8.68652L12.4191 33.425H18.1833L24.7271 43.9849L25.0105 44.7645L25.1995 43.8195L27.4202 33.425H32.4284L28.6959 50.9775H22.9317L16.3879 40.4177L16.1044 39.6617L15.9154 40.583L13.6948 50.9775Z" fill="white"/>
<path d="M5.33897 50.9775H0L3.73256 33.425H9.07153L5.33897 50.9775Z" fill="white"/>
<path d="M36.65 20.7976C36.65 20.7976 34.9019 20.7976 34 20.7976C34 15.6097 34 10.4499 34 5.25284C34.7625 5.25284 35.5528 5.25284 36.3989 5.25284C36.3989 5.75488 36.3989 6.76826 36.3989 6.76826C36.3989 6.76826 36.4733 6.83334 36.5105 6.87053C37.6449 5.383 39.1419 4.81588 40.9365 4.92744C42.7682 5.03901 44.1537 5.83856 45.0649 7.50273C45.1672 7.37257 45.2601 7.2703 45.3253 7.15874C46.5898 5.18776 48.5052 4.68572 50.6531 4.93674C53.6844 5.28073 55.5998 7.45625 55.6835 10.673C55.7671 13.9177 55.7207 17.1624 55.7299 20.407C55.7299 20.4814 55.7114 20.5465 55.6927 20.5651H52.9498C52.9405 20.4721 52.9219 20.3048 52.9219 20.1467C52.9033 17.3669 52.9312 14.5871 52.8568 11.8073C52.8289 10.9241 52.6616 9.99436 52.3454 9.16689C51.8898 7.95828 50.681 7.36327 49.3142 7.45625C47.8544 7.54922 46.9432 8.19997 46.5898 9.56665C46.3666 10.4406 46.2551 11.3517 46.2458 12.2536C46.2086 14.8474 46.2458 17.4413 46.2458 20.0445C46.2458 20.2397 46.2458 20.686 46.2458 20.686H43.4749C43.4749 20.686 43.4749 20.249 43.4749 20.0445C43.4656 17.4877 43.5028 14.9218 43.4377 12.3651C43.4098 11.4168 43.2611 10.4406 42.9914 9.52946C42.6009 8.18142 41.671 7.55851 40.267 7.49344C38.8258 7.42835 37.7472 8.06053 37.18 9.31564C36.6686 10.4406 36.6128 11.6492 36.6128 12.8578C36.6035 15.2472 36.6314 17.6365 36.6407 20.0351C36.65 20.2304 36.65 20.7976 36.65 20.7976ZM93.4622 6.3313C90.8587 4.1279 86.7396 3.94195 83.9966 5.99661C81.1978 8.09772 80.2122 10.9705 80.8166 14.3454C81.328 17.2367 82.9924 19.3193 85.7912 20.3327C88.6085 21.3554 91.2678 21.0486 93.6017 19.0218C93.7039 18.9381 93.8155 18.8637 93.8992 18.715V20.4535C93.8992 20.4535 95.9634 20.4535 96.8746 20.4535C96.8746 13.6016 96.8746 6.78685 96.8746 0C95.889 0 94.9685 0 94.0201 0C94.0201 2.25919 94.0201 6.77756 94.0201 6.77756C94.0201 6.77756 93.6017 6.44287 93.4622 6.3313ZM88.8503 7.31679C91.7234 7.30749 94.1596 9.87348 94.1317 12.8765C94.1037 15.7027 91.6119 18.2315 88.906 18.2036C85.9121 18.1665 83.5596 15.7306 83.5689 12.6533C83.5782 9.7154 85.9399 7.32609 88.8503 7.31679ZM114.848 15.3866C114.448 15.368 114.235 15.4982 114.002 15.8329C112.849 17.5714 110.766 18.3338 108.674 17.8224C106.721 17.3483 105.141 15.5912 104.918 13.5923C107.093 13.5923 109.26 13.5923 111.426 13.5923C113.583 13.5923 115.75 13.5923 118 13.5923C117.916 12.6068 117.879 11.7515 117.758 10.9148C116.977 5.7177 111.175 2.68685 106.452 4.99252C102.844 6.75897 101.05 11.017 102.258 14.9868C103.458 18.9567 107.047 21.2717 111.157 20.7232C113.909 20.3513 116.354 18.4082 117.396 15.3959C116.549 15.3959 115.704 15.4146 114.848 15.3866ZM110.599 7.10296C112.607 7.2703 114.634 9.18552 114.765 11.0728C111.519 11.0728 108.284 11.0728 105.02 11.0728C105.624 8.45106 107.847 6.87983 110.599 7.10296ZM67.92 1.44105C63.8659 0.827435 60.7417 3.51429 60.7417 7.605C60.7417 11.6678 63.9775 15.6191 67.9664 16.4279C72.2157 17.2926 75.591 14.6429 75.6189 10.4313C75.6375 6.13606 72.1692 2.08254 67.92 1.44105ZM72.1507 7.10296C72.9224 8.29298 73.2665 9.61315 72.9503 11.0263C72.4854 13.1088 70.4769 14.3082 68.2454 13.8713C65.6233 13.3598 63.2802 10.4871 63.308 7.81883C63.3266 5.60613 65.0468 3.92336 67.6317 3.96985C69.4542 4.1186 70.9977 5.32721 72.1507 7.10296ZM60.3233 19.5053C66.1347 21.5041 71.9554 21.5413 77.7575 19.3565C71.9554 17.1903 66.144 17.1995 60.3326 19.2171C60.3326 19.31 60.3233 19.403 60.3233 19.5053Z" fill="url(#paint0_linear_3488_641)"/>
<defs>
<linearGradient id="paint0_linear_3488_641" x1="34" y1="10.489" x2="118" y2="10.489" gradientUnits="userSpaceOnUse">
<stop stop-color="#F7007C"/>
<stop offset="0.511628" stop-color="#C216FF"/>
<stop offset="1" stop-color="#07C8F7"/>
</linearGradient>
</defs>
</svg>
